<?xml version="1.0" encoding="UTF-8"?>
<svg width="60" height="60" viewBox="0 0 60 60" fill="none" xmlns="http://www.w3.org/2000/svg">
    <path d="M45 26C45 19.9249 40.0751 15 34 15C31.0414 15 28.3696 16.2296 26.4201 18.2217C24.8994 13.8325 20.7751 10.7 16 10.7C9.92487 10.7 5 15.6249 5 21.7C5 22.0349 5.01657 22.3661 5.04893 22.693C2.05661 24.2839 0 27.4091 0 31C0 36.5228 4.47715 41 10 41H44C52.8366 41 60 33.8366 60 25C60 16.1634 52.8366 9 44 9C43.1227 9 42.1148 9.26046 41 9.5" stroke="#00C3FF" stroke-width="2"/>
    <path fill-rule="evenodd" clip-rule="evenodd" d="M30 32L37 39H23L30 32Z" fill="#00C3FF"/>
    <rect x="28" y="25" width="4" height="12" fill="#00C3FF"/>
</svg>
