<?xml version="1.0" encoding="UTF-8"?>
<svg width="60" height="60" viewBox="0 0 60 60" fill="none" xmlns="http://www.w3.org/2000/svg">
    <path d="M45 30C45 38.2843 38.2843 45 30 45C21.7157 45 15 38.2843 15 30C15 21.7157 21.7157 15 30 15" stroke="#00C3FF" stroke-width="2"/>
    <path d="M30 15C38.2843 15 45 21.7157 45 30" stroke="#00C3FF" stroke-width="2" stroke-dasharray="4 4"/>
    <circle cx="30" cy="30" r="4" fill="#00C3FF"/>
    <path d="M30 10V15M30 45V50M10 30H15M45 30H50" stroke="#00C3FF" stroke-width="2" stroke-linecap="round"/>
    <path d="M16.3934 16.3934L20.9645 20.9645M39.0355 39.0355L43.6066 43.6066M16.3934 43.6066L20.9645 39.0355M39.0355 20.9645L43.6066 16.3934" stroke="#00C3FF" stroke-width="2" stroke-linecap="round"/>
</svg>
